<svg width="24" height="24" viewBox="0 0 24 24" fill="none" xmlns="http://www.w3.org/2000/svg">
<g clip-path="url(#clip0_84_568)">
<path d="M14.4864 12.6336L22.8 12L14.4864 11.3664L14.1168 10.476L17.7264 6.27116L13.5216 9.88076L12.6312 9.51116L11.9976 1.19756L11.364 9.51116L10.4736 9.88076L6.26879 6.27116L9.87839 10.476L9.50879 11.3664L1.19519 12L9.50879 12.6336L9.87839 13.524L6.26879 17.7288L10.4736 14.1192L11.364 14.4888L11.9976 22.8024L12.6312 14.4888L13.5216 14.1192L17.7264 17.7288L14.1168 13.524L14.4864 12.6336Z" fill="white"/>
<path d="M22.8 12C22.8 17.964 17.964 22.8 12 22.8V24C18.6264 24 24 18.6264 24 12H22.8Z" fill="white"/>
<path d="M1.2 12H0C0 18.6264 5.3736 24 12 24V22.8C6.036 22.8 1.2 17.964 1.2 12Z" fill="white"/>
<path d="M12 0C5.3736 0 0 5.3736 0 12H1.2C1.2 6.036 6.036 1.2 12 1.2C17.964 1.2 22.8 6.036 22.8 12H24C24 5.3736 18.6264 0 12 0Z" fill="white"/>
</g>
<defs>
<clipPath id="clip0_84_568">
<rect width="24" height="24" fill="white"/>
</clipPath>
</defs>
</svg>
