<?xml version="1.0" encoding="UTF-8"?><svg xmlns="http://www.w3.org/2000/svg" viewBox="0 0 100 100"><defs><style>.d{fill:#0050ff;}.e{fill:#ff2801;}.f{fill:#fff;}.g{fill:#ffc800;}</style></defs><g id="a"/><g id="b"><g id="c"><path class="f" d="M60.36,52.64l34.64-2.64-34.64-2.64-1.54-3.71,15.04-17.52-17.52,15.04-3.71-1.54-2.64-34.64-2.64,34.64-3.71,1.54-17.52-15.04,15.04,17.52-1.54,3.71-34.64,2.64,34.64,2.64,1.54,3.71-15.04,17.52,17.52-15.04,3.71,1.54,2.64,34.64,2.64-34.64,3.71-1.54,17.52,15.04-15.04-17.52,1.54-3.71Z"/><path class="e" d="M95,50c0,24.85-20.15,45-45,45v5c27.61,0,50-22.39,50-50h-5Z"/><path class="d" d="M5,50H0c0,27.61,22.39,50,50,50v-5c-24.85,0-45-20.15-45-45Z"/><path class="g" d="M50,0C22.39,0,0,22.39,0,50H5C5,25.15,25.15,5,50,5s45,20.15,45,45h5C100,22.39,77.61,0,50,0Z"/></g></g></svg>